<svg id="visual" viewBox="0 0 960 540" width="960" height="540" xmlns="http://www.w3.org/2000/svg" xmlns:xlink="http://www.w3.org/1999/xlink" version="1.1"><rect x="0" y="0" width="960" height="540" fill="#fff"></rect><path d="M0 284L22.8 288.5C45.7 293 91.3 302 137 294.3C182.7 286.7 228.3 262.3 274 253.5C319.7 244.7 365.3 251.3 411.2 263.5C457 275.7 503 293.3 548.8 301.7C594.7 310 640.3 309 686 289C731.7 269 777.3 230 823 215.2C868.7 200.3 914.3 209.7 937.2 214.3L960 219L960 0L937.2 0C914.3 0 868.7 0 823 0C777.3 0 731.7 0 686 0C640.3 0 594.7 0 548.8 0C503 0 457 0 411.2 0C365.3 0 319.7 0 274 0C228.3 0 182.7 0 137 0C91.3 0 45.7 0 22.8 0L0 0Z" fill="#825cc6"></path><path d="M0 254L22.8 241.2C45.7 228.3 91.3 202.7 137 194.8C182.7 187 228.3 197 274 203.8C319.7 210.7 365.3 214.3 411.2 214.8C457 215.3 503 212.7 548.8 209.3C594.7 206 640.3 202 686 199.8C731.7 197.7 777.3 197.3 823 203.2C868.7 209 914.3 221 937.2 227L960 233L960 0L937.2 0C914.3 0 868.7 0 823 0C777.3 0 731.7 0 686 0C640.3 0 594.7 0 548.8 0C503 0 457 0 411.2 0C365.3 0 319.7 0 274 0C228.3 0 182.7 0 137 0C91.3 0 45.7 0 22.8 0L0 0Z" fill="#7649b1"></path><path d="M0 141L22.8 136C45.7 131 91.3 121 137 119.5C182.7 118 228.3 125 274 135.7C319.7 146.3 365.3 160.7 411.2 164C457 167.3 503 159.7 548.8 154.5C594.7 149.3 640.3 146.7 686 140C731.7 133.3 777.3 122.7 823 117.2C868.7 111.7 914.3 111.3 937.2 111.2L960 111L960 0L937.2 0C914.3 0 868.7 0 823 0C777.3 0 731.7 0 686 0C640.3 0 594.7 0 548.8 0C503 0 457 0 411.2 0C365.3 0 319.7 0 274 0C228.3 0 182.7 0 137 0C91.3 0 45.7 0 22.8 0L0 0Z" fill="#6a369c"></path><path d="M0 89L22.8 87.3C45.7 85.7 91.3 82.3 137 88.8C182.7 95.3 228.3 111.7 274 116.2C319.7 120.7 365.3 113.3 411.2 115.3C457 117.3 503 128.7 548.8 133.2C594.7 137.7 640.3 135.3 686 124C731.7 112.7 777.3 92.3 823 84.2C868.7 76 914.3 80 937.2 82L960 84L960 0L937.2 0C914.3 0 868.7 0 823 0C777.3 0 731.7 0 686 0C640.3 0 594.7 0 548.8 0C503 0 457 0 411.2 0C365.3 0 319.7 0 274 0C228.3 0 182.7 0 137 0C91.3 0 45.7 0 22.8 0L0 0Z" fill="#5e2288"></path><path d="M0 50L22.8 55.2C45.7 60.3 91.3 70.7 137 68C182.7 65.3 228.3 49.7 274 44.8C319.7 40 365.3 46 411.2 50.7C457 55.3 503 58.7 548.8 56.2C594.7 53.7 640.3 45.3 686 46C731.7 46.7 777.3 56.3 823 62C868.7 67.7 914.3 69.3 937.2 70.2L960 71L960 0L937.2 0C914.3 0 868.7 0 823 0C777.3 0 731.7 0 686 0C640.3 0 594.7 0 548.8 0C503 0 457 0 411.2 0C365.3 0 319.7 0 274 0C228.3 0 182.7 0 137 0C91.3 0 45.7 0 22.8 0L0 0Z" fill="#520874"></path></svg>